<mxfile host="app.diagrams.net" modified="2024-04-19T22:11:27.308Z" agent="Mozilla/5.0 (Windows NT 10.0; Win64; x64) AppleWebKit/537.36 (KHTML, like Gecko) Chrome/123.0.0.0 Safari/537.36" etag="pnfqxQudydI2hjzswfHu" version="24.2.5" type="github">
  <diagram name="Page-1" id="QnrL3zc8ECIrJKWS5WpY">
    <mxGraphModel dx="2222" dy="1309" grid="1" gridSize="10" guides="1" tooltips="1" connect="1" arrows="1" fold="1" page="1" pageScale="1" pageWidth="850" pageHeight="1100" math="0" shadow="0">
      <root>
        <mxCell id="0" />
        <mxCell id="1" parent="0" />
        <mxCell id="QVGyrubyLwDDq1W49fJA-3" style="edgeStyle=orthogonalEdgeStyle;rounded=0;orthogonalLoop=1;jettySize=auto;html=1;entryX=0.46;entryY=-0.012;entryDx=0;entryDy=0;entryPerimeter=0;" edge="1" parent="1" source="QVGyrubyLwDDq1W49fJA-1" target="QVGyrubyLwDDq1W49fJA-2">
          <mxGeometry relative="1" as="geometry" />
        </mxCell>
        <mxCell id="QVGyrubyLwDDq1W49fJA-1" value="Start" style="rounded=1;whiteSpace=wrap;html=1;arcSize=50;" vertex="1" parent="1">
          <mxGeometry x="96.5" y="10" width="120" height="60" as="geometry" />
        </mxCell>
        <mxCell id="QVGyrubyLwDDq1W49fJA-5" style="edgeStyle=orthogonalEdgeStyle;rounded=0;orthogonalLoop=1;jettySize=auto;html=1;entryX=0.5;entryY=0;entryDx=0;entryDy=0;" edge="1" parent="1" source="QVGyrubyLwDDq1W49fJA-2" target="QVGyrubyLwDDq1W49fJA-4">
          <mxGeometry relative="1" as="geometry" />
        </mxCell>
        <mxCell id="QVGyrubyLwDDq1W49fJA-2" value="Initiate LoRa radio&lt;br&gt;with given&amp;nbsp;&lt;div&gt;parameters&lt;/div&gt;" style="rounded=0;whiteSpace=wrap;html=1;" vertex="1" parent="1">
          <mxGeometry x="101.5" y="110" width="120" height="60" as="geometry" />
        </mxCell>
        <mxCell id="QVGyrubyLwDDq1W49fJA-7" style="edgeStyle=orthogonalEdgeStyle;rounded=0;orthogonalLoop=1;jettySize=auto;html=1;entryX=0.5;entryY=0;entryDx=0;entryDy=0;" edge="1" parent="1" source="QVGyrubyLwDDq1W49fJA-4" target="QVGyrubyLwDDq1W49fJA-6">
          <mxGeometry relative="1" as="geometry" />
        </mxCell>
        <mxCell id="QVGyrubyLwDDq1W49fJA-4" value="Initiate Listening Mode" style="rounded=0;whiteSpace=wrap;html=1;" vertex="1" parent="1">
          <mxGeometry x="101.5" y="200" width="120" height="60" as="geometry" />
        </mxCell>
        <mxCell id="QVGyrubyLwDDq1W49fJA-8" style="edgeStyle=orthogonalEdgeStyle;rounded=0;orthogonalLoop=1;jettySize=auto;html=1;entryX=0;entryY=0.5;entryDx=0;entryDy=0;" edge="1" parent="1" source="QVGyrubyLwDDq1W49fJA-6" target="QVGyrubyLwDDq1W49fJA-11">
          <mxGeometry relative="1" as="geometry">
            <mxPoint x="266.5" y="340" as="targetPoint" />
          </mxGeometry>
        </mxCell>
        <mxCell id="QVGyrubyLwDDq1W49fJA-10" value="Yes" style="edgeLabel;html=1;align=center;verticalAlign=middle;resizable=0;points=[];" vertex="1" connectable="0" parent="QVGyrubyLwDDq1W49fJA-8">
          <mxGeometry x="-0.1743" y="2" relative="1" as="geometry">
            <mxPoint y="-8" as="offset" />
          </mxGeometry>
        </mxCell>
        <mxCell id="QVGyrubyLwDDq1W49fJA-38" style="edgeStyle=orthogonalEdgeStyle;rounded=0;orthogonalLoop=1;jettySize=auto;html=1;" edge="1" parent="1" source="QVGyrubyLwDDq1W49fJA-6">
          <mxGeometry relative="1" as="geometry">
            <mxPoint x="162" y="440.0000000000001" as="targetPoint" />
          </mxGeometry>
        </mxCell>
        <mxCell id="QVGyrubyLwDDq1W49fJA-40" value="No" style="edgeLabel;html=1;align=center;verticalAlign=middle;resizable=0;points=[];" vertex="1" connectable="0" parent="QVGyrubyLwDDq1W49fJA-38">
          <mxGeometry x="-0.1706" y="-1" relative="1" as="geometry">
            <mxPoint as="offset" />
          </mxGeometry>
        </mxCell>
        <mxCell id="QVGyrubyLwDDq1W49fJA-6" value="Earth-quake&lt;div&gt;Detected&lt;/div&gt;" style="rhombus;whiteSpace=wrap;html=1;" vertex="1" parent="1">
          <mxGeometry x="114.5" y="290" width="95" height="100" as="geometry" />
        </mxCell>
        <mxCell id="QVGyrubyLwDDq1W49fJA-36" style="edgeStyle=orthogonalEdgeStyle;rounded=0;orthogonalLoop=1;jettySize=auto;html=1;entryX=0;entryY=0.5;entryDx=0;entryDy=0;" edge="1" parent="1" source="QVGyrubyLwDDq1W49fJA-11" target="QVGyrubyLwDDq1W49fJA-35">
          <mxGeometry relative="1" as="geometry" />
        </mxCell>
        <mxCell id="QVGyrubyLwDDq1W49fJA-11" value="Transmit the warning&lt;br&gt;message packet&lt;div&gt;in non-blocking&lt;/div&gt;&lt;div&gt;Mode&lt;/div&gt;" style="rounded=0;whiteSpace=wrap;html=1;" vertex="1" parent="1">
          <mxGeometry x="256.5" y="350" width="120" height="60" as="geometry" />
        </mxCell>
        <mxCell id="QVGyrubyLwDDq1W49fJA-33" value="" style="group" vertex="1" connectable="0" parent="1">
          <mxGeometry x="1400" y="440" width="170" height="280" as="geometry" />
        </mxCell>
        <mxCell id="QVGyrubyLwDDq1W49fJA-32" value="" style="rounded=1;whiteSpace=wrap;html=1;fillColor=#dae8fc;strokeColor=#6c8ebf;" vertex="1" parent="QVGyrubyLwDDq1W49fJA-33">
          <mxGeometry width="170" height="280" as="geometry" />
        </mxCell>
        <mxCell id="QVGyrubyLwDDq1W49fJA-28" style="edgeStyle=orthogonalEdgeStyle;rounded=0;orthogonalLoop=1;jettySize=auto;html=1;entryX=0.5;entryY=0;entryDx=0;entryDy=0;" edge="1" parent="QVGyrubyLwDDq1W49fJA-33" source="QVGyrubyLwDDq1W49fJA-26" target="QVGyrubyLwDDq1W49fJA-27">
          <mxGeometry relative="1" as="geometry" />
        </mxCell>
        <mxCell id="QVGyrubyLwDDq1W49fJA-26" value="Dio0 Interrupt Triggerd" style="rounded=0;whiteSpace=wrap;html=1;" vertex="1" parent="QVGyrubyLwDDq1W49fJA-33">
          <mxGeometry x="38.63636363636363" y="20.58823529411765" width="92.72727272727273" height="49.41176470588235" as="geometry" />
        </mxCell>
        <mxCell id="QVGyrubyLwDDq1W49fJA-30" style="edgeStyle=orthogonalEdgeStyle;rounded=0;orthogonalLoop=1;jettySize=auto;html=1;entryX=0.5;entryY=0;entryDx=0;entryDy=0;" edge="1" parent="QVGyrubyLwDDq1W49fJA-33" source="QVGyrubyLwDDq1W49fJA-27" target="QVGyrubyLwDDq1W49fJA-29">
          <mxGeometry relative="1" as="geometry" />
        </mxCell>
        <mxCell id="QVGyrubyLwDDq1W49fJA-34" value="Yes" style="edgeLabel;html=1;align=center;verticalAlign=middle;resizable=0;points=[];" vertex="1" connectable="0" parent="QVGyrubyLwDDq1W49fJA-30">
          <mxGeometry x="-0.3015" y="-3" relative="1" as="geometry">
            <mxPoint x="18" y="-1" as="offset" />
          </mxGeometry>
        </mxCell>
        <mxCell id="QVGyrubyLwDDq1W49fJA-27" value="enableInterrupt&lt;div&gt;flag enabled?&lt;/div&gt;" style="rhombus;whiteSpace=wrap;html=1;" vertex="1" parent="QVGyrubyLwDDq1W49fJA-33">
          <mxGeometry x="31.25" y="102.94" width="107.5" height="90.59" as="geometry" />
        </mxCell>
        <mxCell id="QVGyrubyLwDDq1W49fJA-29" value="Enable Action flag" style="rounded=0;whiteSpace=wrap;html=1;" vertex="1" parent="QVGyrubyLwDDq1W49fJA-33">
          <mxGeometry x="38.63636363636363" y="214.11764705882354" width="92.72727272727273" height="49.41176470588235" as="geometry" />
        </mxCell>
        <mxCell id="QVGyrubyLwDDq1W49fJA-35" value="Enable&lt;div&gt;isTransmitting flag&lt;/div&gt;" style="rounded=0;whiteSpace=wrap;html=1;" vertex="1" parent="1">
          <mxGeometry x="436.5" y="350" width="120" height="60" as="geometry" />
        </mxCell>
        <mxCell id="QVGyrubyLwDDq1W49fJA-37" style="edgeStyle=orthogonalEdgeStyle;rounded=0;orthogonalLoop=1;jettySize=auto;html=1;entryX=0.585;entryY=0.096;entryDx=0;entryDy=0;entryPerimeter=0;" edge="1" parent="1" source="QVGyrubyLwDDq1W49fJA-35" target="QVGyrubyLwDDq1W49fJA-6">
          <mxGeometry relative="1" as="geometry">
            <Array as="points">
              <mxPoint x="496.5" y="300" />
              <mxPoint x="180.5" y="300" />
            </Array>
          </mxGeometry>
        </mxCell>
        <mxCell id="QVGyrubyLwDDq1W49fJA-42" style="edgeStyle=orthogonalEdgeStyle;rounded=0;orthogonalLoop=1;jettySize=auto;html=1;entryX=0;entryY=0.5;entryDx=0;entryDy=0;" edge="1" parent="1" source="QVGyrubyLwDDq1W49fJA-41" target="QVGyrubyLwDDq1W49fJA-6">
          <mxGeometry relative="1" as="geometry">
            <mxPoint x="161.5" y="270.0000000000001" as="targetPoint" />
            <Array as="points">
              <mxPoint x="76.5" y="495" />
              <mxPoint x="76.5" y="340" />
            </Array>
          </mxGeometry>
        </mxCell>
        <mxCell id="QVGyrubyLwDDq1W49fJA-43" value="No" style="edgeLabel;html=1;align=center;verticalAlign=middle;resizable=0;points=[];" vertex="1" connectable="0" parent="QVGyrubyLwDDq1W49fJA-42">
          <mxGeometry x="-0.4211" relative="1" as="geometry">
            <mxPoint as="offset" />
          </mxGeometry>
        </mxCell>
        <mxCell id="QVGyrubyLwDDq1W49fJA-45" style="edgeStyle=orthogonalEdgeStyle;rounded=0;orthogonalLoop=1;jettySize=auto;html=1;entryX=0;entryY=0.5;entryDx=0;entryDy=0;" edge="1" parent="1" source="QVGyrubyLwDDq1W49fJA-41" target="QVGyrubyLwDDq1W49fJA-44">
          <mxGeometry relative="1" as="geometry" />
        </mxCell>
        <mxCell id="QVGyrubyLwDDq1W49fJA-41" value="Action flag&lt;br&gt;enabled?" style="rhombus;whiteSpace=wrap;html=1;" vertex="1" parent="1">
          <mxGeometry x="109.5" y="440" width="104" height="110" as="geometry" />
        </mxCell>
        <mxCell id="QVGyrubyLwDDq1W49fJA-48" style="edgeStyle=orthogonalEdgeStyle;rounded=0;orthogonalLoop=1;jettySize=auto;html=1;entryX=0.5;entryY=0;entryDx=0;entryDy=0;" edge="1" parent="1" source="QVGyrubyLwDDq1W49fJA-44" target="QVGyrubyLwDDq1W49fJA-46">
          <mxGeometry relative="1" as="geometry" />
        </mxCell>
        <mxCell id="QVGyrubyLwDDq1W49fJA-44" value="Make enableInterrupt&lt;br&gt;and Action flags False" style="rounded=0;whiteSpace=wrap;html=1;" vertex="1" parent="1">
          <mxGeometry x="256.5" y="465" width="120" height="60" as="geometry" />
        </mxCell>
        <mxCell id="QVGyrubyLwDDq1W49fJA-50" style="edgeStyle=orthogonalEdgeStyle;rounded=0;orthogonalLoop=1;jettySize=auto;html=1;entryX=0.5;entryY=0;entryDx=0;entryDy=0;" edge="1" parent="1" source="QVGyrubyLwDDq1W49fJA-46" target="QVGyrubyLwDDq1W49fJA-49">
          <mxGeometry relative="1" as="geometry" />
        </mxCell>
        <mxCell id="QVGyrubyLwDDq1W49fJA-57" value="Yes" style="edgeLabel;html=1;align=center;verticalAlign=middle;resizable=0;points=[];" vertex="1" connectable="0" parent="QVGyrubyLwDDq1W49fJA-50">
          <mxGeometry x="-0.2563" y="-3" relative="1" as="geometry">
            <mxPoint x="23" as="offset" />
          </mxGeometry>
        </mxCell>
        <mxCell id="QVGyrubyLwDDq1W49fJA-58" style="edgeStyle=orthogonalEdgeStyle;rounded=0;orthogonalLoop=1;jettySize=auto;html=1;entryX=0.987;entryY=0.388;entryDx=0;entryDy=0;entryPerimeter=0;" edge="1" parent="1" source="QVGyrubyLwDDq1W49fJA-46" target="QVGyrubyLwDDq1W49fJA-59">
          <mxGeometry relative="1" as="geometry">
            <mxPoint x="116.5" y="620" as="targetPoint" />
          </mxGeometry>
        </mxCell>
        <mxCell id="QVGyrubyLwDDq1W49fJA-46" value="isTransmitting flag&lt;div&gt;enabled?&lt;/div&gt;" style="rhombus;whiteSpace=wrap;html=1;" vertex="1" parent="1">
          <mxGeometry x="254" y="560" width="125" height="120" as="geometry" />
        </mxCell>
        <mxCell id="QVGyrubyLwDDq1W49fJA-52" style="edgeStyle=orthogonalEdgeStyle;rounded=0;orthogonalLoop=1;jettySize=auto;html=1;entryX=0;entryY=0.5;entryDx=0;entryDy=0;" edge="1" parent="1" source="QVGyrubyLwDDq1W49fJA-49" target="QVGyrubyLwDDq1W49fJA-51">
          <mxGeometry relative="1" as="geometry" />
        </mxCell>
        <mxCell id="QVGyrubyLwDDq1W49fJA-49" value="Log transmission&lt;br&gt;status" style="rounded=0;whiteSpace=wrap;html=1;" vertex="1" parent="1">
          <mxGeometry x="256.5" y="720" width="120" height="60" as="geometry" />
        </mxCell>
        <mxCell id="QVGyrubyLwDDq1W49fJA-53" style="edgeStyle=orthogonalEdgeStyle;rounded=0;orthogonalLoop=1;jettySize=auto;html=1;entryX=0.5;entryY=1;entryDx=0;entryDy=0;" edge="1" parent="1" source="QVGyrubyLwDDq1W49fJA-51" target="QVGyrubyLwDDq1W49fJA-54">
          <mxGeometry relative="1" as="geometry">
            <mxPoint x="596.5" y="660" as="targetPoint" />
            <Array as="points">
              <mxPoint x="586.5" y="750" />
            </Array>
          </mxGeometry>
        </mxCell>
        <mxCell id="QVGyrubyLwDDq1W49fJA-56" value="Yes" style="edgeLabel;html=1;align=center;verticalAlign=middle;resizable=0;points=[];" vertex="1" connectable="0" parent="QVGyrubyLwDDq1W49fJA-53">
          <mxGeometry x="-0.1689" y="3" relative="1" as="geometry">
            <mxPoint x="13" y="-21" as="offset" />
          </mxGeometry>
        </mxCell>
        <mxCell id="QVGyrubyLwDDq1W49fJA-85" style="edgeStyle=orthogonalEdgeStyle;rounded=0;orthogonalLoop=1;jettySize=auto;html=1;entryX=0.998;entryY=0.665;entryDx=0;entryDy=0;entryPerimeter=0;" edge="1" parent="1" target="QVGyrubyLwDDq1W49fJA-88">
          <mxGeometry relative="1" as="geometry">
            <mxPoint x="501.5" y="700" as="sourcePoint" />
            <mxPoint x="379" y="260" as="targetPoint" />
            <Array as="points">
              <mxPoint x="501.5" y="450" />
              <mxPoint x="566.5" y="450" />
              <mxPoint x="566.5" y="240" />
            </Array>
          </mxGeometry>
        </mxCell>
        <mxCell id="QVGyrubyLwDDq1W49fJA-87" value="No" style="edgeLabel;html=1;align=center;verticalAlign=middle;resizable=0;points=[];" vertex="1" connectable="0" parent="QVGyrubyLwDDq1W49fJA-85">
          <mxGeometry x="-0.7762" y="1" relative="1" as="geometry">
            <mxPoint as="offset" />
          </mxGeometry>
        </mxCell>
        <mxCell id="QVGyrubyLwDDq1W49fJA-51" value="retxSch flag Enabled?" style="rhombus;whiteSpace=wrap;html=1;" vertex="1" parent="1">
          <mxGeometry x="436.5" y="685" width="130" height="130" as="geometry" />
        </mxCell>
        <mxCell id="QVGyrubyLwDDq1W49fJA-62" style="edgeStyle=orthogonalEdgeStyle;rounded=0;orthogonalLoop=1;jettySize=auto;html=1;entryX=0.5;entryY=1;entryDx=0;entryDy=0;" edge="1" parent="1" source="QVGyrubyLwDDq1W49fJA-54" target="QVGyrubyLwDDq1W49fJA-61">
          <mxGeometry relative="1" as="geometry" />
        </mxCell>
        <mxCell id="QVGyrubyLwDDq1W49fJA-54" value="retxSch flag to false&lt;br&gt;Revert LoRa parameters to selected values" style="rounded=0;whiteSpace=wrap;html=1;" vertex="1" parent="1">
          <mxGeometry x="526.5" y="590" width="120" height="60" as="geometry" />
        </mxCell>
        <mxCell id="QVGyrubyLwDDq1W49fJA-66" style="edgeStyle=orthogonalEdgeStyle;rounded=0;orthogonalLoop=1;jettySize=auto;html=1;entryX=0.5;entryY=0;entryDx=0;entryDy=0;" edge="1" parent="1" source="QVGyrubyLwDDq1W49fJA-59" target="QVGyrubyLwDDq1W49fJA-64">
          <mxGeometry relative="1" as="geometry" />
        </mxCell>
        <mxCell id="QVGyrubyLwDDq1W49fJA-59" value="Save the payload&lt;br&gt;&lt;div&gt;And&lt;/div&gt;&lt;div&gt;Status code&lt;/div&gt;" style="rounded=0;whiteSpace=wrap;html=1;" vertex="1" parent="1">
          <mxGeometry x="16.5" y="597" width="120" height="60" as="geometry" />
        </mxCell>
        <mxCell id="QVGyrubyLwDDq1W49fJA-63" style="edgeStyle=orthogonalEdgeStyle;rounded=0;orthogonalLoop=1;jettySize=auto;html=1;entryX=1;entryY=0.5;entryDx=0;entryDy=0;" edge="1" parent="1">
          <mxGeometry relative="1" as="geometry">
            <mxPoint x="587" y="470" as="sourcePoint" />
            <mxPoint x="379.5" y="230" as="targetPoint" />
            <Array as="points">
              <mxPoint x="587" y="230" />
            </Array>
          </mxGeometry>
        </mxCell>
        <mxCell id="QVGyrubyLwDDq1W49fJA-61" value="&lt;div&gt;Disable&lt;/div&gt;isTransmitting flag" style="rounded=0;whiteSpace=wrap;html=1;" vertex="1" parent="1">
          <mxGeometry x="526.5" y="470" width="120" height="70" as="geometry" />
        </mxCell>
        <mxCell id="QVGyrubyLwDDq1W49fJA-67" style="edgeStyle=orthogonalEdgeStyle;rounded=0;orthogonalLoop=1;jettySize=auto;html=1;entryX=0;entryY=0.5;entryDx=0;entryDy=0;" edge="1" parent="1" source="QVGyrubyLwDDq1W49fJA-64" target="QVGyrubyLwDDq1W49fJA-69">
          <mxGeometry relative="1" as="geometry">
            <mxPoint x="256.5" y="940" as="targetPoint" />
            <Array as="points">
              <mxPoint x="76.5" y="965" />
            </Array>
          </mxGeometry>
        </mxCell>
        <mxCell id="QVGyrubyLwDDq1W49fJA-68" value="No" style="edgeLabel;html=1;align=center;verticalAlign=middle;resizable=0;points=[];" vertex="1" connectable="0" parent="QVGyrubyLwDDq1W49fJA-67">
          <mxGeometry x="-0.5934" y="1" relative="1" as="geometry">
            <mxPoint x="-1" y="-9" as="offset" />
          </mxGeometry>
        </mxCell>
        <mxCell id="QVGyrubyLwDDq1W49fJA-64" value="Is there are no&lt;div&gt;errors in&lt;/div&gt;&lt;div&gt;reception?&lt;/div&gt;" style="rhombus;whiteSpace=wrap;html=1;" vertex="1" parent="1">
          <mxGeometry x="14" y="700" width="125" height="130" as="geometry" />
        </mxCell>
        <mxCell id="QVGyrubyLwDDq1W49fJA-70" style="edgeStyle=orthogonalEdgeStyle;rounded=0;orthogonalLoop=1;jettySize=auto;html=1;entryX=0.469;entryY=0.988;entryDx=0;entryDy=0;entryPerimeter=0;" edge="1" parent="1" source="QVGyrubyLwDDq1W49fJA-69" target="QVGyrubyLwDDq1W49fJA-72">
          <mxGeometry relative="1" as="geometry">
            <mxPoint x="321.5" y="870" as="targetPoint" />
          </mxGeometry>
        </mxCell>
        <mxCell id="QVGyrubyLwDDq1W49fJA-71" value="Warning Message" style="edgeLabel;html=1;align=center;verticalAlign=middle;resizable=0;points=[];" vertex="1" connectable="0" parent="QVGyrubyLwDDq1W49fJA-70">
          <mxGeometry x="-0.0441" y="1" relative="1" as="geometry">
            <mxPoint as="offset" />
          </mxGeometry>
        </mxCell>
        <mxCell id="QVGyrubyLwDDq1W49fJA-75" style="edgeStyle=orthogonalEdgeStyle;rounded=0;orthogonalLoop=1;jettySize=auto;html=1;entryX=0;entryY=0.5;entryDx=0;entryDy=0;" edge="1" parent="1" source="QVGyrubyLwDDq1W49fJA-69" target="QVGyrubyLwDDq1W49fJA-77">
          <mxGeometry relative="1" as="geometry">
            <mxPoint x="466.5" y="965" as="targetPoint" />
          </mxGeometry>
        </mxCell>
        <mxCell id="QVGyrubyLwDDq1W49fJA-76" value="Reconfig&lt;br&gt;Message" style="edgeLabel;html=1;align=center;verticalAlign=middle;resizable=0;points=[];" vertex="1" connectable="0" parent="QVGyrubyLwDDq1W49fJA-75">
          <mxGeometry x="0.0292" y="2" relative="1" as="geometry">
            <mxPoint x="-1" as="offset" />
          </mxGeometry>
        </mxCell>
        <mxCell id="QVGyrubyLwDDq1W49fJA-93" value="" style="edgeStyle=orthogonalEdgeStyle;rounded=0;orthogonalLoop=1;jettySize=auto;html=1;entryX=0.5;entryY=0;entryDx=0;entryDy=0;" edge="1" parent="1" source="QVGyrubyLwDDq1W49fJA-69" target="QVGyrubyLwDDq1W49fJA-95">
          <mxGeometry relative="1" as="geometry">
            <mxPoint x="321.5" y="1090" as="targetPoint" />
          </mxGeometry>
        </mxCell>
        <mxCell id="QVGyrubyLwDDq1W49fJA-94" value="Health Ping" style="edgeLabel;html=1;align=center;verticalAlign=middle;resizable=0;points=[];" vertex="1" connectable="0" parent="QVGyrubyLwDDq1W49fJA-93">
          <mxGeometry x="-0.3888" y="-2" relative="1" as="geometry">
            <mxPoint as="offset" />
          </mxGeometry>
        </mxCell>
        <mxCell id="QVGyrubyLwDDq1W49fJA-69" value="What is the&lt;br&gt;packet type" style="rhombus;whiteSpace=wrap;html=1;" vertex="1" parent="1">
          <mxGeometry x="266.5" y="910" width="110" height="110" as="geometry" />
        </mxCell>
        <mxCell id="QVGyrubyLwDDq1W49fJA-74" style="edgeStyle=orthogonalEdgeStyle;rounded=0;orthogonalLoop=1;jettySize=auto;html=1;" edge="1" parent="1" source="QVGyrubyLwDDq1W49fJA-72" target="QVGyrubyLwDDq1W49fJA-88">
          <mxGeometry relative="1" as="geometry">
            <Array as="points">
              <mxPoint x="666.5" y="830" />
              <mxPoint x="666.5" y="220" />
            </Array>
          </mxGeometry>
        </mxCell>
        <mxCell id="QVGyrubyLwDDq1W49fJA-72" value="Notify and trigger the&lt;br&gt;warning" style="rounded=0;whiteSpace=wrap;html=1;" vertex="1" parent="1">
          <mxGeometry x="264.5" y="800" width="120" height="60" as="geometry" />
        </mxCell>
        <mxCell id="QVGyrubyLwDDq1W49fJA-79" style="edgeStyle=orthogonalEdgeStyle;rounded=0;orthogonalLoop=1;jettySize=auto;html=1;entryX=0;entryY=0.5;entryDx=0;entryDy=0;" edge="1" parent="1" source="QVGyrubyLwDDq1W49fJA-77" target="QVGyrubyLwDDq1W49fJA-78">
          <mxGeometry relative="1" as="geometry" />
        </mxCell>
        <mxCell id="QVGyrubyLwDDq1W49fJA-77" value="Save current LoRa&lt;br&gt;parameters&lt;br&gt;in old_lora_parameters" style="rounded=0;whiteSpace=wrap;html=1;" vertex="1" parent="1">
          <mxGeometry x="456.5" y="935" width="120" height="60" as="geometry" />
        </mxCell>
        <mxCell id="QVGyrubyLwDDq1W49fJA-81" style="edgeStyle=orthogonalEdgeStyle;rounded=0;orthogonalLoop=1;jettySize=auto;html=1;entryX=0.5;entryY=1;entryDx=0;entryDy=0;" edge="1" parent="1" source="QVGyrubyLwDDq1W49fJA-78" target="QVGyrubyLwDDq1W49fJA-80">
          <mxGeometry relative="1" as="geometry">
            <Array as="points">
              <mxPoint x="775.5" y="970" />
            </Array>
          </mxGeometry>
        </mxCell>
        <mxCell id="QVGyrubyLwDDq1W49fJA-78" value="Update the LoRa parameters" style="rounded=0;whiteSpace=wrap;html=1;" vertex="1" parent="1">
          <mxGeometry x="615.5" y="935" width="120" height="60" as="geometry" />
        </mxCell>
        <mxCell id="QVGyrubyLwDDq1W49fJA-80" value="Get a random time interval" style="rounded=0;whiteSpace=wrap;html=1;" vertex="1" parent="1">
          <mxGeometry x="715.5" y="830" width="120" height="60" as="geometry" />
        </mxCell>
        <mxCell id="QVGyrubyLwDDq1W49fJA-90" style="edgeStyle=orthogonalEdgeStyle;rounded=0;orthogonalLoop=1;jettySize=auto;html=1;entryX=1;entryY=0.174;entryDx=0;entryDy=0;exitX=0.5;exitY=0;exitDx=0;exitDy=0;entryPerimeter=0;" edge="1" parent="1" source="QVGyrubyLwDDq1W49fJA-82" target="QVGyrubyLwDDq1W49fJA-88">
          <mxGeometry relative="1" as="geometry">
            <mxPoint x="746.5" y="320" as="targetPoint" />
            <Array as="points">
              <mxPoint x="775.5" y="210" />
              <mxPoint x="378.5" y="210" />
            </Array>
          </mxGeometry>
        </mxCell>
        <mxCell id="QVGyrubyLwDDq1W49fJA-82" value="Schedule a Retransmite packet,&lt;br&gt;Enable retxSch" style="rounded=0;whiteSpace=wrap;html=1;" vertex="1" parent="1">
          <mxGeometry x="715.5" y="740" width="120" height="50" as="geometry" />
        </mxCell>
        <mxCell id="QVGyrubyLwDDq1W49fJA-84" style="edgeStyle=orthogonalEdgeStyle;rounded=0;orthogonalLoop=1;jettySize=auto;html=1;entryX=0.502;entryY=1.018;entryDx=0;entryDy=0;entryPerimeter=0;" edge="1" parent="1" source="QVGyrubyLwDDq1W49fJA-80" target="QVGyrubyLwDDq1W49fJA-82">
          <mxGeometry relative="1" as="geometry" />
        </mxCell>
        <mxCell id="QVGyrubyLwDDq1W49fJA-89" style="edgeStyle=orthogonalEdgeStyle;rounded=0;orthogonalLoop=1;jettySize=auto;html=1;entryX=1;entryY=0.5;entryDx=0;entryDy=0;" edge="1" parent="1" source="QVGyrubyLwDDq1W49fJA-88" target="QVGyrubyLwDDq1W49fJA-4">
          <mxGeometry relative="1" as="geometry" />
        </mxCell>
        <mxCell id="QVGyrubyLwDDq1W49fJA-88" value="Enable&lt;div&gt;enableInterrupt flag&lt;br&gt;&lt;/div&gt;" style="rounded=0;whiteSpace=wrap;html=1;" vertex="1" parent="1">
          <mxGeometry x="259" y="200" width="120" height="60" as="geometry" />
        </mxCell>
        <mxCell id="QVGyrubyLwDDq1W49fJA-95" value="Is the timeout&lt;br&gt;reached&lt;br&gt;for another&lt;br&gt;health check&amp;nbsp;&lt;div&gt;ping&lt;/div&gt;" style="rhombus;whiteSpace=wrap;html=1;" vertex="1" parent="1">
          <mxGeometry x="249.63" y="1080" width="143.75" height="140" as="geometry" />
        </mxCell>
      </root>
    </mxGraphModel>
  </diagram>
</mxfile>
